<?xml version="1.0" standalone="no"?>
<!DOCTYPE svg PUBLIC "-//W3C//DTD SVG 1.1//EN" "http://www.w3.org/Graphics/SVG/1.1/DTD/svg11.dtd" >
<svg xmlns="http://www.w3.org/2000/svg" xmlns:xlink="http://www.w3.org/1999/xlink" version="1.1">
<metadata></metadata>
<defs>
<font id="gothamextralight" horiz-adv-x="1165" >
<font-face units-per-em="2048" ascent="1638" descent="-410" />
<missing-glyph horiz-adv-x="614" />
<glyph unicode="&#xfb01;" horiz-adv-x="1169" d="M100 973v59h158v129q0 182 88 264q76 76 203 76q79 0 149 -26v-64q-67 27 -149 27q-225 0 -225 -283v-123h370v-59h-370v-973h-66v973h-158zM889 1317v125h88v-125h-88zM899 0v1032h66v-1032h-66z" />
<glyph unicode="&#xfb02;" horiz-adv-x="1169" d="M100 973v59h158v129q0 182 88 264q76 76 203 76q79 0 149 -26v-64q-67 27 -149 27q-225 0 -225 -283v-123h370v-59h-370v-973h-66v973h-158zM899 0v1495h66v-1495h-66z" />
<glyph unicode="&#xfb03;" horiz-adv-x="1865" d="M100 973v59h158v129q0 182 88 264q76 76 203 76q79 0 149 -26v-64q-67 27 -149 27q-225 0 -225 -283v-123h370v-59h-370v-973h-66v973h-158zM797 973v59h157v129q0 178 86 264q79 76 205 76q74 0 150 -26v-64q-67 27 -150 27q-225 0 -225 -283v-123h371v-59h-371v-973 h-66v973h-157zM1585 1317v125h88v-125h-88zM1595 0v1032h66v-1032h-66z" />
<glyph unicode="&#xfb04;" horiz-adv-x="1865" d="M100 973v59h158v129q0 182 88 264q76 76 203 76q79 0 149 -26v-64q-67 27 -149 27q-225 0 -225 -283v-123h370v-59h-370v-973h-66v973h-158zM797 973v59h157v129q0 178 86 264q79 76 205 76q74 0 150 -26v-64q-67 27 -150 27q-225 0 -225 -283v-123h371v-59h-371v-973 h-66v973h-157zM1595 0v1495h66v-1495h-66z" />
<glyph horiz-adv-x="0" />
<glyph horiz-adv-x="682" />
<glyph unicode=" "  horiz-adv-x="614" />
<glyph unicode="&#x09;" horiz-adv-x="614" />
<glyph unicode="&#xa0;" horiz-adv-x="614" />
<glyph unicode="!" horiz-adv-x="444" d="M174 0v133h98v-133h-98zM184 1243v191h76v-191l-20 -868h-35z" />
<glyph unicode="&#x22;" horiz-adv-x="708" d="M129 913l72 521h84v-7l-117 -514h-39zM434 913l72 521h84v-7l-117 -514h-39z" />
<glyph unicode="#" horiz-adv-x="1384" d="M100 399v62h250l90 520h-258v61h269l67 392h64l-68 -392h465l68 392h63l-68 -392h240v-61h-250l-90 -520h258v-62h-268l-68 -399h-63l67 399h-465l-67 -399h-64l68 399h-240zM414 461h465l90 520h-465z" />
<glyph unicode="$" horiz-adv-x="1282" d="M131 221l45 51q194 -191 440 -211v639q-227 48 -329.5 133.5t-102.5 237.5v2q0 150 121 254.5t309 104.5v120h64v-122q121 -7 218.5 -48.5t188.5 -117.5l-43 -54q-88 75 -174 114t-192 46v-618q236 -53 345 -139.5t109 -237.5v-2q0 -163 -125.5 -268t-326.5 -105v-201 h-64v203q-272 20 -483 219zM254 1073q0 -121 80.5 -189t281.5 -118v608q-161 0 -261.5 -86.5t-100.5 -212.5v-2zM676 59h6h2q167 0 272 89t105 223v2q0 123 -89 194t-296 119v-627z" />
<glyph unicode="%" horiz-adv-x="1650" d="M111 1079v4q0 148 89.5 257.5t227.5 109.5t227.5 -108.5t89.5 -256.5v-4q0 -151 -89 -258.5t-228 -107.5t-228 107.5t-89 256.5zM180 1081q0 -129 71.5 -219t178.5 -90q109 0 177.5 89t68.5 216v4q0 127 -71 218.5t-179 91.5t-177 -90t-69 -216v-4zM264 0l537 729 l516 705h69l-540 -738l-512 -696h-70zM905 348v4q0 148 90 257.5t228 109.5t227.5 -108.5t89.5 -256.5v-4q0 -151 -89 -258.5t-228 -107.5t-228.5 107.5t-89.5 256.5zM975 352q0 -129 71.5 -219t178.5 -90q110 0 177.5 88.5t67.5 216.5v4q0 128 -70.5 219t-178.5 91 t-177 -90t-69 -216v-4z" />
<glyph unicode="&#x26;" horiz-adv-x="1388" d="M104 360v5q0 82 28.5 149t85 118t119 88.5t152.5 76.5q-97 103 -138.5 184t-41.5 164v4q0 123 94 216t246 93q139 0 230.5 -88.5t91.5 -208.5v-4q0 -123 -86 -211t-283 -168l416 -440q106 149 194 379l62 -23q-100 -247 -213 -403l256 -271l-51 -45l-246 263 q-209 -258 -485 -258q-187 0 -309 109.5t-122 270.5zM174 362q0 -134 101.5 -227.5t259.5 -93.5q240 0 442 242l-445 469q-169 -67 -263.5 -159.5t-94.5 -225.5v-5zM379 1149q0 -73 40 -148.5t140 -179.5q185 74 264.5 152.5t79.5 181.5v4q0 97 -72 168.5t-184 71.5 q-120 0 -194 -73.5t-74 -172.5v-4z" />
<glyph unicode="'" horiz-adv-x="405" d="M129 913l72 521h84v-7l-117 -514h-39z" />
<glyph unicode="(" horiz-adv-x="831" d="M141 588v2q0 276 139.5 498t409.5 374l29 -45q-251 -148 -379.5 -357.5t-128.5 -471.5v-2q0 -259 129 -470.5t379 -357.5l-29 -45q-270 154 -409.5 376t-139.5 499z" />
<glyph unicode=")" horiz-adv-x="831" d="M113 -242q251 148 379.5 358t128.5 472v2q0 259 -129 470t-379 357l28 45q270 -154 409.5 -375.5t139.5 -498.5v-2q0 -276 -139.5 -498.5t-409.5 -374.5z" />
<glyph unicode="*" horiz-adv-x="880" d="M160 1010l252 125l-252 125l33 55l231 -154l-14 277h61l-14 -277l231 154l33 -55l-252 -125l252 -125l-33 -56l-231 154l14 -277h-61l14 277l-231 -154z" />
<glyph unicode="+" horiz-adv-x="1245" d="M143 690v62h447v458h65v-458h447v-62h-447v-459h-65v459h-447z" />
<glyph unicode="," horiz-adv-x="389" d="M113 -152q47 23 64.5 58.5t12.5 93.5h-45v133h99v-117q0 -90 -25.5 -134t-87.5 -68z" />
<glyph unicode="-" horiz-adv-x="811" d="M143 573v72h525v-72h-525z" />
<glyph unicode="." horiz-adv-x="389" d="M145 0v133h99v-133h-99z" />
<glyph unicode="/" horiz-adv-x="989" d="M-37 -262l965 1896h67l-964 -1896h-68z" />
<glyph unicode="0" horiz-adv-x="1454" d="M137 715v4q0 147 41 280.5t115 235.5t187 162.5t247 60.5q109 0 203.5 -39t164.5 -108t120.5 -162t76 -202.5t25.5 -227.5v-4q0 -147 -41 -280.5t-115 -236t-187 -163t-247 -60.5q-135 0 -248 60.5t-187 162.5t-114.5 235.5t-40.5 281.5zM209 717q0 -133 36 -254.5 t101 -216t164.5 -151t218.5 -56.5t217.5 55.5t163 149.5t100 215t35.5 254v4q0 133 -36 254.5t-101 216t-164.5 151t-218.5 56.5t-217.5 -55.5t-163 -149t-100 -214.5t-35.5 -255v-4z" />
<glyph unicode="1" horiz-adv-x="661" d="M66 1315l307 129h53v-1444h-68v1368l-270 -108z" />
<glyph unicode="2" horiz-adv-x="1179" d="M88 0v47l604 571q162 151 221.5 254t59.5 203q0 134 -102.5 226t-254.5 92q-271 0 -436 -281l-55 35q175 307 496 307q186 0 304.5 -107.5t118.5 -265.5v-4q0 -119 -65 -227t-242 -277l-536 -507h862v-66h-975z" />
<glyph unicode="3" horiz-adv-x="1159" d="M57 231l54 45q84 -112 203 -174.5t264 -62.5q163 0 278 95.5t115 242.5v4q0 113 -65 190.5t-175 112.5t-260 35h-59l-21 41l533 608h-791v66h885v-50l-526 -602q250 -5 399 -106t149 -293v-4q0 -116 -64 -209.5t-170 -144t-231 -50.5q-165 0 -296 68.5t-222 187.5z" />
<glyph unicode="4" horiz-adv-x="1306" d="M82 414l846 1030h59v-1018h236v-61h-236v-365h-65v365h-818zM172 426h750v915z" />
<glyph unicode="5" horiz-adv-x="1222" d="M115 205l51 49q90 -98 205.5 -156.5t240.5 -58.5q185 0 303.5 109.5t118.5 277.5v4q0 163 -119.5 265t-302.5 102q-180 0 -356 -95l-49 29l41 703h780v-66h-717l-37 -588q162 78 347 78q208 0 345.5 -119t137.5 -307v-4q0 -198 -139.5 -325.5t-356.5 -127.5 q-140 0 -272.5 65t-220.5 165z" />
<glyph unicode="6" horiz-adv-x="1294" d="M139 674v4q0 222 68 398t199 279t305 103q212 0 405 -166l-45 -53q-169 156 -366 156q-152 0 -265.5 -96t-172 -260t-58.5 -371v-121q45 149 171.5 241.5t291.5 92.5q137 0 250.5 -56t180 -157.5t66.5 -225.5v-4q0 -192 -143 -327.5t-352 -135.5q-222 0 -361 146 q-89 89 -131.5 219t-42.5 334zM246 434q0 -164 126 -279.5t306 -115.5q179 0 299.5 117.5t120.5 279.5v4q0 163 -122 271t-306 108q-87 0 -166.5 -31.5t-135.5 -84t-89 -122t-33 -143.5v-4z" />
<glyph unicode="7" horiz-adv-x="1136" d="M119 1368v66h940v-48l-686 -1386h-76l684 1368h-862z" />
<glyph unicode="8" horiz-adv-x="1286" d="M115 373v4q0 131 98.5 227.5t253.5 134.5q-136 44 -216.5 130t-80.5 210v4q0 105 64.5 190.5t173 133t235.5 47.5t235.5 -47.5t173 -133t64.5 -190.5v-4q0 -124 -80.5 -210t-216.5 -130q154 -38 252 -135.5t98 -226.5v-4q0 -167 -146 -280t-380 -113q-235 0 -381.5 112.5 t-146.5 280.5zM186 371q0 -136 126 -232t331 -96q207 0 332 94.5t125 231.5v4q0 144 -133 239t-326 95q-192 0 -323.5 -94t-131.5 -238v-4zM240 1081q0 -138 116.5 -225.5t286.5 -87.5t285.5 86.5t115.5 224.5v4q0 130 -117.5 219t-285.5 89q-170 0 -285.5 -87.5 t-115.5 -218.5v-4z" />
<glyph unicode="9" horiz-adv-x="1294" d="M125 983v4q0 129 64.5 236.5t179 171t254.5 63.5q208 0 360 -145q87 -87 130.5 -220t43.5 -335v-4q0 -223 -70.5 -400t-201 -278t-299.5 -101q-224 0 -422 179l45 53q182 -168 379 -168q151 0 265.5 96t174 258.5t59.5 364.5q0 72 -2 123q-44 -154 -170.5 -248 t-291.5 -94q-215 0 -356.5 125.5t-141.5 318.5zM197 985q0 -168 122 -275.5t308 -107.5q177 0 299.5 115.5t122.5 271.5v4q0 167 -125 284.5t-308 117.5q-88 0 -166.5 -33t-133.5 -88t-87 -129.5t-32 -155.5v-4z" />
<glyph unicode=":" horiz-adv-x="409" d="M156 0v133h98v-133h-98zM156 899v133h98v-133h-98z" />
<glyph unicode=";" horiz-adv-x="409" d="M123 -152q47 23 65 58.5t13 93.5h-45v133h98v-117q0 -90 -25.5 -134t-87.5 -68zM156 899v133h98v-133h-98z" />
<glyph unicode="&#x3c;" horiz-adv-x="1245" d="M121 698v45l946 486v-72l-856 -436l856 -436v-72z" />
<glyph unicode="=" horiz-adv-x="1245" d="M182 453v65h881v-65h-881zM182 926v65h881v-65h-881z" />
<glyph unicode="&#x3e;" horiz-adv-x="1245" d="M178 213v72l856 436l-856 436v72l946 -486v-45z" />
<glyph unicode="?" horiz-adv-x="1050" d="M57 1200q175 252 451 252q194 0 315 -112t121 -277v-4q0 -91 -36 -165.5t-98.5 -124t-140 -79.5t-165.5 -39l-17 -276h-38l-21 325l8 9q197 8 317.5 101t120.5 245v4q0 142 -102.5 237t-265.5 95q-121 0 -221.5 -61t-175.5 -169zM420 0v133h98v-133h-98z" />
<glyph unicode="@" horiz-adv-x="1968" d="M123 547q0 180 66.5 346.5t180.5 291t277 199t346 74.5q177 0 336.5 -65.5t272.5 -174.5t179 -256t66 -305q0 -126 -32.5 -225t-85.5 -156.5t-113 -86.5t-121 -29q-109 0 -171.5 64t-70.5 161q-60 -103 -151 -164t-203 -61q-151 0 -249.5 95.5t-98.5 252.5 q0 102 38 194.5t100.5 157t143 102t164.5 37.5q118 0 200.5 -61.5t109.5 -161.5l34 185l64 -11l-74 -407q-14 -77 -14 -129q0 -95 45.5 -149t136.5 -54q54 0 104.5 26t94 78t70 140.5t26.5 201.5q0 146 -61.5 283t-166.5 240.5t-256 166t-319 62.5q-173 0 -326.5 -70 t-260 -187.5t-168.5 -275.5t-62 -329q0 -179 64 -334t175.5 -264t266.5 -171.5t332 -62.5q264 0 489 138l25 -39q-227 -148 -516 -148q-186 0 -350 66.5t-282 182t-186.5 280t-68.5 352.5zM621 512q0 -134 78.5 -211.5t205.5 -77.5q132 0 244 107q61 61 96 142.5t35 166.5 q0 128 -81 212.5t-202 84.5q-138 0 -249 -111q-127 -121 -127 -313z" />
<glyph unicode="A" horiz-adv-x="1589" d="M82 0l680 1444h65l680 -1444h-75l-195 418h-887l-196 -418h-72zM381 481h825l-413 881z" />
<glyph unicode="B" horiz-adv-x="1482" d="M213 0v1434h590q250 0 375 -125q92 -92 92 -232v-4q0 -131 -74 -220t-190 -120q148 -26 245 -118.5t97 -231.5v-4q0 -180 -136 -279.5t-378 -99.5h-621zM283 63h553q209 0 324.5 83t115.5 231v4q0 148 -118.5 229.5t-313.5 81.5h-561v-629zM283 756h534q168 0 275.5 81 t107.5 230v4q0 137 -105.5 218t-293.5 81h-518v-614z" />
<glyph unicode="C" horiz-adv-x="1501" d="M150 713v4q0 199 90.5 368.5t254 271t363.5 101.5q97 0 178 -16.5t147.5 -49.5t117 -70t108.5 -91l-49 -51q-50 48 -97 83t-108.5 67t-136.5 48.5t-162 16.5q-179 0 -325 -91.5t-228 -246t-82 -338.5v-4q0 -183 83 -338.5t230 -246.5t324 -91q157 0 280 60.5t230 168.5 l49 -47q-246 -246 -563 -246q-148 0 -279.5 58.5t-224 157.5t-146.5 235t-54 287z" />
<glyph unicode="D" horiz-adv-x="1591" d="M213 0v1434h467q166 0 309 -55.5t242 -151.5t155 -227.5t56 -280.5v-4q0 -149 -56 -280.5t-155 -227.5t-242 -151.5t-309 -55.5h-467zM283 63h399q151 0 280.5 51t218.5 138.5t139 206.5t50 254v4q0 135 -50 254.5t-139 207.5t-219 139.5t-282 51.5h-397v-1307z" />
<glyph unicode="E" horiz-adv-x="1361" d="M213 0v1434h1010v-64h-940v-616h850v-64h-850v-627h950v-63h-1020z" />
<glyph unicode="F" horiz-adv-x="1304" d="M213 0v1434h999v-64h-929v-635h839v-63h-839v-672h-70z" />
<glyph unicode="G" horiz-adv-x="1599" d="M150 713v4q0 115 31.5 224.5t93.5 202.5t146.5 163.5t197.5 110.5t239 40q161 0 279 -45.5t229 -140.5l-45 -53q-104 87 -211.5 131.5t-255.5 44.5q-140 0 -260 -56t-201 -150t-126.5 -216t-45.5 -254v-4q0 -139 44.5 -262t126 -215.5t203.5 -146.5t269 -54 q141 0 268.5 52t221.5 132v441h-510v67h577v-534q-107 -99 -251 -159.5t-308 -60.5q-165 0 -301 59t-225 160t-137.5 234.5t-48.5 284.5z" />
<glyph unicode="H" horiz-adv-x="1546" d="M213 0v1434h70v-680h981v680h69v-1434h-69v690h-981v-690h-70z" />
<glyph unicode="I" horiz-adv-x="524" d="M227 0v1434h70v-1434h-70z" />
<glyph unicode="J" horiz-adv-x="1105" d="M68 258l59 33q114 -250 365 -250q155 0 253.5 111.5t98.5 322.5v959h69v-951q0 -255 -133 -391q-121 -115 -293 -115q-144 0 -250.5 74t-168.5 207z" />
<glyph unicode="K" horiz-adv-x="1427" d="M213 0v1434h70v-959l960 959h96l-624 -617l649 -817h-90l-608 770l-383 -379v-391h-70z" />
<glyph unicode="L" horiz-adv-x="1220" d="M213 0v1434h70v-1371h864v-63h-934z" />
<glyph unicode="M" horiz-adv-x="1767" d="M213 0v1434h66l606 -873l604 873h65v-1434h-69v1313l-600 -860h-4l-600 860v-1313h-68z" />
<glyph unicode="N" horiz-adv-x="1605" d="M213 0v1434h63l1049 -1315v1315h68v-1434h-56l-1056 1325v-1325h-68z" />
<glyph unicode="O" horiz-adv-x="1730" d="M150 715v4q0 146 51.5 280t143 236t227.5 162.5t294 60.5t294 -60.5t227 -162.5t142.5 -236t51.5 -280v-4q0 -146 -51.5 -280.5t-143.5 -236.5t-228 -162.5t-294 -60.5q-127 0 -240.5 39t-199 109t-148 162.5t-94.5 202.5t-32 227zM221 717q0 -134 48 -257.5 t131.5 -216.5t205.5 -148.5t262 -55.5q139 0 260 54.5t204 146.5t130 215t47 258v4q0 134 -47.5 257.5t-130.5 216.5t-205 148.5t-262 55.5t-261.5 -54.5t-204.5 -146.5t-130 -215t-47 -258v-4z" />
<glyph unicode="P" horiz-adv-x="1370" d="M213 0v1434h510q253 0 399 -116t146 -319v-4q0 -210 -154 -327t-405 -117h-426v-551h-70zM283 616h428q225 0 356 99.5t131 277.5v4q0 177 -128 275t-353 98h-434v-754z" />
<glyph unicode="Q" horiz-adv-x="1730" d="M150 715v4q0 146 51.5 280t143 236t227.5 162.5t294 60.5t294 -60.5t227 -162.5t142.5 -236t51.5 -280v-4q0 -298 -192 -512l204 -178l-47 -54l-205 183q-195 -179 -477 -179q-127 0 -240.5 39t-199 109t-148 162.5t-94.5 202.5t-32 227zM221 717q0 -134 48 -257.5 t131.5 -216.5t205.5 -148.5t262 -55.5q242 0 420 160l-299 260l47 53l301 -266q83 93 127.5 213t44.5 254v4q0 134 -47.5 257.5t-130.5 216.5t-205 148.5t-262 55.5t-261.5 -54.5t-204.5 -146.5t-130 -215t-47 -258v-4z" />
<glyph unicode="R" horiz-adv-x="1482" d="M213 0v1434h592q271 0 409 -138q105 -108 105 -266v-4q0 -175 -123.5 -281t-327.5 -124l478 -621h-89l-466 612h-508v-612h-70zM283 676h503q217 0 340 95.5t123 250.5v4q0 162 -117.5 253t-330.5 91h-518v-694z" />
<glyph unicode="S" horiz-adv-x="1312" d="M121 209l47 51q117 -110 244.5 -163.5t283.5 -53.5q184 0 297 89t113 226v4q0 87 -38 145t-135 103.5t-269 81.5q-265 54 -376.5 142.5t-111.5 244.5v4q0 156 132.5 263.5t332.5 107.5q270 0 487 -168l-43 -55q-201 160 -448 160q-173 0 -282 -89t-109 -212v-5 q0 -86 37.5 -143.5t135.5 -103.5t271 -82q264 -53 375 -143.5t111 -243.5v-4q0 -168 -133.5 -276.5t-350.5 -108.5q-321 0 -571 229z" />
<glyph unicode="T" horiz-adv-x="1236" d="M74 1370v64h1091v-64h-512v-1370h-69v1370h-510z" />
<glyph unicode="U" horiz-adv-x="1546" d="M190 618v816h70v-811q0 -281 138.5 -431.5t377.5 -150.5t374.5 147t135.5 430v816h70v-809q0 -313 -157.5 -480.5t-424.5 -167.5q-130 0 -236.5 41t-184.5 120t-120.5 201.5t-42.5 278.5z" />
<glyph unicode="V" horiz-adv-x="1507" d="M82 1434h76l598 -1356l598 1356h71l-643 -1444h-57z" />
<glyph unicode="W" horiz-adv-x="2152" d="M94 1434h76l451 -1334l430 1338h53l432 -1340l451 1336h71l-495 -1444h-58l-430 1317l-428 -1317h-57z" />
<glyph unicode="X" horiz-adv-x="1417" d="M88 0l578 729l-557 705h81l519 -660l518 660h82l-557 -705l577 -729h-82l-538 684l-539 -684h-82z" />
<glyph unicode="Y" horiz-adv-x="1394" d="M53 1434h86l561 -785l557 785h84l-608 -846v-588h-69v588z" />
<glyph unicode="Z" horiz-adv-x="1384" d="M137 0v39l1016 1331h-981v64h1079v-39l-1015 -1332h1011v-63h-1110z" />
<glyph unicode="[" horiz-adv-x="856" d="M201 -266v1700h547v-52h-482v-1597h482v-51h-547z" />
<glyph unicode="\" horiz-adv-x="989" d="M-8 1634h69l965 -1896h-70z" />
<glyph unicode="]" horiz-adv-x="856" d="M109 -215h481v1597h-481v52h546v-1700h-546v51z" />
<glyph unicode="^" horiz-adv-x="1024" d="M166 1012l321 428h50l321 -428h-63l-283 360l-285 -360h-61z" />
<glyph unicode="_" horiz-adv-x="1167" d="M-4 -254h1175v-59h-1175v59z" />
<glyph unicode="`" horiz-adv-x="1024" d="M352 1427l80 39l178 -247h-51z" />
<glyph unicode="a" d="M104 291v4q0 157 127 244.5t330 87.5q193 0 369 -58v70q0 174 -96 261t-273 87q-161 0 -336 -86l-24 57q190 91 364 91q215 0 328 -113q102 -105 102 -293v-643h-65v215q-46 -97 -158.5 -168.5t-275.5 -71.5q-76 0 -145.5 20.5t-125 58.5t-88.5 99.5t-33 137.5zM174 295 q0 -122 94.5 -190t231.5 -68q185 0 308.5 101t123.5 243v127q-173 57 -373 57q-174 0 -279.5 -70t-105.5 -196v-4z" />
<glyph unicode="b" horiz-adv-x="1345" d="M190 0v1495h66v-747q57 137 176.5 223t280.5 86q104 0 197.5 -40.5t162.5 -110.5t109.5 -171t40.5 -217v-4q0 -115 -40.5 -216t-109.5 -171.5t-162.5 -111t-197.5 -40.5q-163 0 -281 85.5t-176 220.5v-281h-66zM252 514q0 -199 133 -337t322 -138q196 0 321 133t125 340 v4q0 204 -127 340.5t-319 136.5q-126 0 -230.5 -63t-164.5 -172t-60 -240v-4z" />
<glyph unicode="c" horiz-adv-x="1157" d="M119 514v4q0 144 69 267.5t191 197.5t268 74q132 0 230 -51t182 -140l-47 -47q-165 176 -367 176q-193 0 -325 -139t-132 -336v-4q0 -197 135 -338t326 -141q205 0 371 184l47 -41q-83 -97 -184 -151t-238 -54q-145 0 -266 73.5t-190.5 197t-69.5 268.5z" />
<glyph unicode="d" horiz-adv-x="1345" d="M123 514v4q0 115 40.5 216t109.5 171.5t162.5 111t197.5 40.5q163 0 281 -85t176 -220v743h65v-1495h-65v285q-55 -136 -176 -223t-281 -87q-104 0 -197.5 40.5t-162.5 110.5t-109.5 171t-40.5 217zM193 516q0 -204 127 -340.5t319 -136.5q189 0 322 138t133 337v4 q0 199 -133 337t-322 138q-196 0 -321 -133t-125 -340v-4z" />
<glyph unicode="e" horiz-adv-x="1193" d="M119 516v4q0 150 63.5 273t176.5 193.5t253 70.5q113 0 204.5 -45.5t149 -122.5t88.5 -173.5t31 -201.5v-22h-895q5 -136 68 -241.5t161.5 -159.5t213.5 -54t210 52t161 138l49 -39q-166 -213 -422 -213q-104 0 -197.5 38.5t-163 107.5t-110.5 171.5t-41 223.5zM190 551 h824q-4 85 -32 163.5t-77.5 142t-126.5 101t-170 37.5q-176 0 -293 -126t-125 -318z" />
<glyph unicode="f" horiz-adv-x="696" d="M100 973v59h158v129q0 182 88 264q76 76 203 76q79 0 149 -26v-64q-67 27 -149 27q-225 0 -225 -283v-123h370v-59h-370v-973h-66v973h-158z" />
<glyph unicode="g" horiz-adv-x="1335" d="M123 563v4q0 137 70 250.5t185.5 176.5t248.5 63q153 0 269 -75t181 -198v248h68v-874q0 -224 -133 -357q-135 -135 -371 -135q-258 0 -471 160l39 53q195 -149 432 -149q200 0 318 112t118 324v186q-63 -124 -180.5 -200t-269.5 -76q-133 0 -248.5 62.5t-185.5 175.5 t-70 249zM195 565q0 -179 128.5 -302.5t309.5 -123.5q119 0 222.5 55.5t165.5 153.5t62 215v4q0 117 -62 215.5t-165.5 154.5t-222.5 56q-182 0 -310 -121.5t-128 -302.5v-4z" />
<glyph unicode="h" horiz-adv-x="1249" d="M190 0v1495h66v-709q20 49 52 94t79.5 86.5t116.5 66t149 24.5q199 0 312.5 -124.5t113.5 -328.5v-604h-65v594q0 184 -96 292.5t-273 108.5q-164 0 -276.5 -118.5t-112.5 -294.5v-582h-66z" />
<glyph unicode="i" horiz-adv-x="473" d="M193 1317v125h88v-125h-88zM203 0v1032h67v-1032h-67z" />
<glyph unicode="j" horiz-adv-x="473" d="M-18 -270q27 -9 75 -9q67 0 106.5 46.5t39.5 132.5v1132h67v-1128q0 -119 -57 -180.5t-154 -61.5q-41 0 -77 8v60zM193 1317v125h88v-125h-88z" />
<glyph unicode="k" horiz-adv-x="1116" d="M190 0v1495h66v-1130l686 667h88l-475 -457l500 -575h-82l-463 530l-254 -243v-287h-66z" />
<glyph unicode="l" horiz-adv-x="473" d="M203 0v1495h67v-1495h-67z" />
<glyph unicode="m" horiz-adv-x="1904" d="M190 0v1032h66v-231q38 104 131 180t221 76q146 0 238 -76.5t127 -196.5q41 112 139.5 192.5t230.5 80.5q181 0 286.5 -116.5t105.5 -324.5v-616h-66v610q0 185 -89 285t-241 100q-137 0 -240.5 -112t-103.5 -281v-602h-65v612q0 183 -88.5 283t-239.5 100 q-137 0 -241.5 -116t-104.5 -279v-600h-66z" />
<glyph unicode="n" horiz-adv-x="1249" d="M190 0v1032h66v-246q20 49 52 94t79.5 86.5t116.5 66t149 24.5q199 0 312.5 -124.5t113.5 -328.5v-604h-65v594q0 184 -96 292.5t-273 108.5q-164 0 -276.5 -118.5t-112.5 -294.5v-582h-66z" />
<glyph unicode="o" horiz-adv-x="1302" d="M117 512v4q0 145 66.5 268t190.5 198t279 75q153 0 276.5 -74t190 -196.5t66.5 -266.5v-4q0 -144 -66.5 -267.5t-190.5 -198.5t-278 -75t-277.5 74t-190 196.5t-66.5 266.5zM188 514q0 -129 59.5 -238t167 -174t238.5 -65q133 0 239.5 65t165 174t58.5 238v4 q0 129 -59.5 238t-167.5 174t-240 65q-200 0 -330.5 -139t-130.5 -338v-4z" />
<glyph unicode="p" horiz-adv-x="1345" d="M190 -328v1360h66v-284q57 137 176.5 223t280.5 86q104 0 197.5 -40.5t162.5 -110.5t109.5 -171t40.5 -217v-4q0 -115 -40.5 -216t-109.5 -171.5t-162.5 -111t-197.5 -40.5q-163 0 -281 85.5t-176 220.5v-609h-66zM252 514q0 -199 133 -337t322 -138q196 0 321 133 t125 340v4q0 204 -127 340.5t-319 136.5q-126 0 -230.5 -63t-164.5 -172t-60 -240v-4z" />
<glyph unicode="q" horiz-adv-x="1345" d="M123 514v4q0 115 40.5 216t109.5 171.5t162.5 111t197.5 40.5q163 0 281 -85t176 -220v280h65v-1360h-65v613q-55 -136 -176 -223t-281 -87q-104 0 -197.5 40.5t-162.5 110.5t-109.5 171t-40.5 217zM193 516q0 -204 127 -340.5t319 -136.5q189 0 322 138t133 337v4 q0 199 -133 337t-322 138q-196 0 -321 -133t-125 -340v-4z" />
<glyph unicode="r" horiz-adv-x="739" d="M190 0v1032h66v-315q48 142 166 241q113 95 260 95h12v-68h-10q-122 0 -221.5 -71t-153 -184.5t-53.5 -240.5v-489h-66z" />
<glyph unicode="s" horiz-adv-x="1009" d="M94 133l39 51q180 -141 385 -141q126 0 210.5 60.5t84.5 154.5v4q0 27 -6.5 50t-20.5 42t-29.5 34.5t-41 29t-46.5 23.5t-54 21t-56 17.5t-59 16.5q-73 21 -113.5 34t-94.5 38t-82 50.5t-48.5 66t-20.5 91.5v4q0 117 98.5 194t254.5 77q193 0 362 -115l-37 -55 q-147 108 -327 108q-127 0 -205 -57.5t-78 -145.5v-4q0 -27 9.5 -51t22.5 -41.5t39.5 -35t47 -28.5t59.5 -24.5t63.5 -21t71.5 -21.5q53 -14 92.5 -26.5t83.5 -30.5t74.5 -39.5t56.5 -49.5t39 -64.5t13 -80.5v-4q0 -125 -105 -203.5t-262 -78.5q-111 0 -222.5 40t-197.5 111 z" />
<glyph unicode="t" horiz-adv-x="786" d="M88 973v59h158v346h65v-346h375v-59h-375v-703q0 -114 55.5 -170.5t159.5 -56.5q78 0 156 37v-64q-69 -34 -162 -34q-128 0 -201 72t-73 210v709h-158z" />
<glyph unicode="u" horiz-adv-x="1249" d="M170 428v604h66v-594q0 -184 96 -292.5t272 -108.5q164 0 276.5 119t112.5 295v581h66v-1032h-66v246q-20 -50 -52.5 -95t-80.5 -86t-116.5 -65.5t-147.5 -24.5q-199 0 -312.5 124.5t-113.5 328.5z" />
<glyph unicode="v" d="M84 1032h76l424 -960l426 960h71l-471 -1040h-53z" />
<glyph unicode="w" horiz-adv-x="1693" d="M98 1032h74l324 -946l325 952h53l326 -952l326 946h67l-366 -1040h-56l-323 942l-326 -942h-55z" />
<glyph unicode="x" horiz-adv-x="1118" d="M78 0l440 524l-424 508h82l383 -463l387 463h78l-424 -506l440 -526h-82l-401 481l-401 -481h-78z" />
<glyph unicode="y" horiz-adv-x="1181" d="M84 1032h74l454 -960l416 960h70l-465 -1059q-79 -178 -153 -242.5t-183 -64.5t-199 51l27 56q82 -45 174 -45q89 0 149 57t132 217z" />
<glyph unicode="z" horiz-adv-x="1052" d="M92 0v37l770 936h-743v59h839v-37l-768 -936h773v-59h-871z" />
<glyph unicode="{" horiz-adv-x="933" d="M102 559v57h45q252 0 252 267v161q0 51 3 88t12.5 77t27 69t47 58.5t71.5 51t101 41.5t136 35l10 -49q-68 -15 -119.5 -33.5t-87.5 -37t-60.5 -45t-39 -50.5t-22 -60.5t-9.5 -68t-2 -80.5v-159q0 -255 -221 -293q221 -44 221 -293v-160q0 -49 2 -80.5t9.5 -68t22 -60.5 t39 -50.5t60.5 -45t87.5 -37t119.5 -33.5l-10 -49q-77 15 -136 35t-101 41.5t-71.5 51t-47 58.5t-27 69t-12.5 77t-3 88v162q0 266 -252 266h-45z" />
<glyph unicode="|" horiz-adv-x="550" d="M246 -262v1896h59v-1896h-59z" />
<glyph unicode="}" horiz-adv-x="933" d="M127 -240q68 15 119.5 33.5t87.5 37t60.5 45t39 50.5t22 60.5t9.5 68t2 80.5v160q0 255 221 293q-221 44 -221 293v159q0 49 -2 80.5t-9.5 68t-22 60.5t-39 50.5t-60.5 45t-87.5 37t-119.5 33.5l10 49q77 -15 136 -35t101 -41.5t71.5 -51t47 -58.5t27 -69t12.5 -77t3 -88 v-161q0 -267 251 -267h45v-57h-45q-251 0 -251 -266v-162q0 -51 -3 -88t-12.5 -77t-27 -69t-47 -58.5t-71.5 -51t-101 -41.5t-136 -35z" />
<glyph unicode="~" horiz-adv-x="917" d="M170 520q22 94 61.5 134t96.5 40q41 0 141 -53q89 -51 123 -51q38 0 62.5 26t47.5 93l46 -13q-22 -94 -61.5 -134t-96.5 -40q-49 0 -141 56q-92 49 -123 49q-38 0 -63 -25.5t-48 -91.5z" />
<glyph unicode="&#xa1;" horiz-adv-x="444" d="M174 1300v134h98v-134h-98zM184 0v190l21 869h35l20 -869v-190h-76z" />
<glyph unicode="&#xa2;" d="M135 725v2q0 143 69.5 267.5t191.5 199t266 74.5q8 0 24 -1t23 -1l36 180h66l-37 -191q163 -33 301 -178l-47 -47q-62 64 -125.5 105.5t-142.5 58.5l-185 -940q40 -6 84 -6q216 0 377 182l45 -39q-173 -205 -426 -205q-49 0 -90 9l-41 -207h-63l43 221 q-164 49 -266.5 193t-102.5 323zM203 727q0 -156 86.5 -281.5t226.5 -175.5l182 934q-14 2 -39 2q-125 0 -230 -64.5t-165.5 -174.5t-60.5 -238v-2z" />
<glyph unicode="&#xa3;" horiz-adv-x="1263" d="M137 0v37l182 26v578h-182v66h182v239q0 253 136 389q119 119 303 119q253 0 405 -223l-53 -41q-68 95 -152.5 148t-201.5 53q-153 0 -252 -99q-115 -115 -115 -342v-243h615v-66h-615v-578h766v-63h-1018z" />
<glyph unicode="&#xa5;" horiz-adv-x="1320" d="M53 1434h86l525 -783l522 783h82l-547 -797h399v-62h-426v-264h426v-61h-426v-250h-67v250h-428v61h428v264h-428v62h399z" />
<glyph unicode="&#xa7;" horiz-adv-x="1294" d="M143 741v4q0 98 96.5 163t262.5 65q-232 75 -232 229v4q0 108 100.5 178t268.5 70q124 0 241.5 -45.5t192.5 -116.5l-49 -49q-66 63 -171.5 104.5t-217.5 41.5q-137 0 -214 -51t-77 -132v-4q0 -86 96 -140.5t312 -98.5q210 -43 305.5 -107.5t95.5 -163.5v-4 q0 -97 -96 -162t-262 -65q229 -74 229 -230v-4q0 -108 -99.5 -177.5t-267.5 -69.5q-126 0 -244.5 45t-189.5 116l47 49q70 -63 175 -104t217 -41q137 0 213.5 50.5t76.5 131.5v4q0 86 -96 141t-311 99q-210 43 -306 107t-96 163zM213 748q0 -74 78.5 -125t263.5 -88 q121 -29 236 -29q124 0 208 51t84 125v4q0 70 -79.5 121.5t-262.5 91.5q-121 29 -235 29q-124 0 -208.5 -51t-84.5 -125v-4z" />
<glyph unicode="&#xa8;" horiz-adv-x="1024" d="M315 1241v127h101v-127h-101zM608 1241v127h101v-127h-101z" />
<glyph unicode="&#xa9;" horiz-adv-x="1699" d="M109 715v4q0 200 99 370t270 269.5t372 99.5q153 0 290.5 -58.5t236 -157.5t156.5 -235.5t58 -287.5v-4q0 -150 -58.5 -286.5t-157.5 -236t-236.5 -158.5t-288.5 -59q-204 0 -375 99.5t-268.5 269.5t-97.5 371zM156 715q0 -189 91.5 -349t251.5 -254t351 -94 q142 0 271 55.5t221.5 149.5t147 222.5t54.5 269.5v4q0 141 -54.5 270t-147 222t-221.5 148.5t-271 55.5q-143 0 -272 -55.5t-221.5 -149t-146.5 -222t-54 -269.5v-4zM489 723v4q0 161 108.5 275t266.5 114q95 0 160.5 -31.5t128.5 -91.5l-43 -43q-111 111 -248 111 q-133 0 -222 -97.5t-89 -234.5q-4 0 0 -4q0 -136 90 -234t223 -98q81 0 139 29t113 86l41 -39q-61 -63 -129.5 -97t-165.5 -34q-158 0 -265.5 113t-107.5 272z" />
<glyph unicode="&#xaa;" horiz-adv-x="835" d="M152 631v51h510v-51h-510zM156 1022v4q0 89 69.5 136.5t184.5 47.5q99 0 188 -26v26q0 89 -49 134t-141 45q-89 0 -181 -50l-20 50q104 49 205 49q120 0 184 -64q55 -55 55 -162v-354h-53v103q-76 -115 -223 -115q-87 0 -153 46.5t-66 129.5zM213 1026q0 -61 47.5 -96 t116.5 -35q93 0 157 51t64 125v66q-95 26 -192 26q-87 0 -140 -36t-53 -97v-4z" />
<glyph unicode="&#xab;" horiz-adv-x="989" d="M96 516v12l346 424l45 -32l-313 -398l313 -397l-45 -33zM471 516v12l348 424l45 -32l-313 -398l313 -397l-45 -33z" />
<glyph unicode="&#xad;" horiz-adv-x="811" d="M143 573v72h525v-72h-525z" />
<glyph unicode="&#xae;" horiz-adv-x="851" d="M70 1094v2q0 147 104 252.5t252 105.5q150 0 253 -104.5t103 -251.5v-2q0 -147 -104 -253t-252 -106q-150 0 -253 105t-103 252zM106 1094q0 -132 93 -227t227 -95t226.5 95.5t92.5 228.5v2q0 132 -92.5 226.5t-226.5 94.5t-227 -95t-93 -228v-2zM295 922v358h156 q59 0 96 -27t37 -79v-3q0 -39 -26 -67t-66 -39l104 -143h-57l-99 137h-100v-137h-45zM340 1098h104q43 0 68 19.5t25 51.5v2q0 31 -25 50t-66 18h-106v-141z" />
<glyph unicode="&#xaf;" horiz-adv-x="1024" d="M231 1272v61h562v-61h-562z" />
<glyph unicode="&#xb0;" horiz-adv-x="897" d="M150 1151v4q0 117 90 204t209 87t209 -87t90 -204v-4q0 -117 -90 -204t-209 -87t-209 87t-90 204zM215 1151q0 -94 69 -162.5t165 -68.5t164.5 68.5t68.5 162.5v4q0 95 -68.5 164.5t-164.5 69.5t-165 -70t-69 -164v-4z" />
<glyph unicode="&#xb1;" horiz-adv-x="1245" d="M152 0v61h942v-61h-942zM152 752v61h438v428h65v-428h439v-61h-439v-428h-65v428h-438z" />
<glyph unicode="&#xb2;" horiz-adv-x="819" d="M125 872v50l324 282q91 79 129 135t38 121q0 74 -53 123t-137 49q-140 0 -242 -162l-45 27q57 88 126.5 137t164.5 49q104 0 174 -63t70 -156q0 -44 -10.5 -79.5t-37.5 -72t-57 -66.5t-84 -77l-282 -243h481v-54h-559z" />
<glyph unicode="&#xb3;" horiz-adv-x="819" d="M113 993l43 37q54 -66 113.5 -96.5t136.5 -30.5q85 0 145.5 51t60.5 131q0 85 -68.5 132t-187.5 47h-51l-12 34l295 312h-438v53h512v-49l-287 -301q138 -5 217.5 -63.5t79.5 -162.5q0 -101 -79.5 -168t-189.5 -67q-176 0 -290 141z" />
<glyph unicode="&#xb4;" horiz-adv-x="1024" d="M414 1219l178 247l80 -39l-207 -208h-51z" />
<glyph unicode="&#xb5;" horiz-adv-x="1347" d="M190 -328v1360h66v-579q0 -178 110 -297t271 -119q158 0 268.5 122t110.5 294v579h65v-790q0 -104 41.5 -149.5t120.5 -45.5q38 0 80 10v-61q-42 -10 -84 -10q-109 0 -166 60.5t-57 193.5v6q-48 -113 -144.5 -192t-236.5 -79q-147 0 -244.5 80t-138.5 197h-2 q6 -96 6 -277v-303h-66z" />
<glyph unicode="&#xb6;" horiz-adv-x="956" d="M106 999v5q0 131 68 229.5t186.5 149.5t270.5 51h121v-1434h-72v567h-18q-156 0 -281 49.5t-200 149t-75 233.5z" />
<glyph unicode="&#xb7;" horiz-adv-x="389" d="M145 537v133h99v-133h-99z" />
<glyph unicode="&#xb8;" horiz-adv-x="1024" d="M348 -260l178 270h54l-160 -305z" />
<glyph unicode="&#xb9;" horiz-adv-x="665" d="M137 1593l225 84h48v-805h-58v744l-200 -72z" />
<glyph unicode="&#xba;" horiz-adv-x="837" d="M125 1141v4q0 125 83.5 212t211.5 87q127 0 210 -86.5t83 -208.5v-4q0 -121 -84.5 -210t-210.5 -89q-128 0 -210.5 86.5t-82.5 208.5zM131 631v51h576v-51h-576zM184 1145q0 -103 67.5 -174.5t170.5 -71.5q100 0 165.5 71t65.5 171v4q0 102 -68.5 174t-166.5 72 q-101 0 -167.5 -71t-66.5 -171v-4z" />
<glyph unicode="&#xbb;" horiz-adv-x="989" d="M125 125l313 397l-313 398l45 32l348 -424v-12l-348 -424zM502 125l313 397l-313 398l45 32l346 -424v-12l-346 -424z" />
<glyph unicode="&#xbc;" horiz-adv-x="1689" d="M129 1364l225 84h47v-805h-57v743l-201 -71zM297 0l502 727l475 707h67l-501 -727l-475 -707h-68zM985 238l414 565h65v-561h123v-49h-123v-197h-53v197h-410zM1051 242h360v489z" />
<glyph unicode="&#xbd;" horiz-adv-x="1689" d="M129 1364l225 84h47v-805h-57v743l-201 -71zM276 0l502 727l475 707h68l-502 -727l-475 -707h-68zM1016 0v49l323 283q91 79 129.5 135t38.5 121q0 74 -53 123t-137 49q-140 0 -242 -162l-45 27q57 88 126.5 137t164.5 49q104 0 174 -63t70 -156q0 -44 -10.5 -79.5 t-37.5 -72t-57 -66.5t-84 -77l-282 -244h481v-53h-559z" />
<glyph unicode="&#xbe;" horiz-adv-x="1843" d="M113 764l43 37q54 -66 113.5 -96.5t136.5 -30.5q85 0 145.5 51t60.5 131q0 85 -68.5 131.5t-187.5 46.5h-51l-12 35l295 311h-438v54h512v-50l-287 -301q138 -5 217.5 -63t79.5 -162q0 -101 -79.5 -168t-189.5 -67q-176 0 -290 141zM440 0l502 727l475 707h68l-502 -727 l-475 -707h-68zM1139 238l413 565h66v-561h123v-49h-123v-197h-53v197h-410zM1204 242h361v489z" />
<glyph unicode="&#xbf;" horiz-adv-x="1050" d="M106 371v4q0 91 36 165.5t99 123t140 78.5t166 40l16 277h39l21 -326l-9 -8q-197 -8 -317.5 -101t-120.5 -245v-4q0 -142 103 -237t266 -95q121 0 221.5 60.5t175.5 168.5l51 -39q-174 -251 -450 -251q-194 0 -315.5 112t-121.5 277zM532 1300v134h99v-134h-99z" />
<glyph unicode="&#xc0;" horiz-adv-x="1589" d="M82 0l680 1444h65l680 -1444h-75l-195 418h-887l-196 -418h-72zM381 481h825l-413 881zM553 1761l76 39l198 -219h-59z" />
<glyph unicode="&#xc1;" horiz-adv-x="1589" d="M82 0l680 1444h65l680 -1444h-75l-195 418h-887l-196 -418h-72zM381 481h825l-413 881zM760 1581l198 219l76 -39l-215 -180h-59z" />
<glyph unicode="&#xc2;" horiz-adv-x="1589" d="M82 0l680 1444h65l680 -1444h-75l-195 418h-887l-196 -418h-72zM381 481h825l-413 881zM549 1575l213 207h61l213 -207h-69l-174 141l-177 -141h-67z" />
<glyph unicode="&#xc3;" horiz-adv-x="1589" d="M82 0l680 1444h65l680 -1444h-75l-195 418h-887l-196 -418h-72zM381 481h825l-413 881zM510 1593q43 162 156 162q20 0 47 -8.5t43.5 -16t54.5 -26.5q80 -43 119 -43q37 0 62 24t48 84l45 -12q-23 -85 -61 -123.5t-94 -38.5q-46 0 -144 52q-88 43 -118 43 q-37 0 -62.5 -24.5t-48.5 -84.5z" />
<glyph unicode="&#xc4;" horiz-adv-x="1589" d="M82 0l680 1444h65l680 -1444h-75l-195 418h-887l-196 -418h-72zM381 481h825l-413 881zM584 1604v125h106v-125h-106zM899 1604v125h107v-125h-107z" />
<glyph unicode="&#xc5;" horiz-adv-x="1589" d="M82 0l649 1378q-67 17 -107 65t-40 113q0 79 61.5 133t149.5 54t149.5 -54t61.5 -133q0 -65 -40.5 -112.5t-107.5 -65.5l649 -1378h-75l-195 418h-887l-196 -418h-72zM381 481h825l-413 881zM637 1556q0 -61 45.5 -100t112.5 -39t111 39t44 100t-44.5 101.5t-110.5 40.5 q-67 0 -112.5 -40.5t-45.5 -101.5z" />
<glyph unicode="&#xc6;" horiz-adv-x="2101" d="M16 0l899 1434h1047v-64h-907v-616h819v-64h-819v-627h917v-63h-987v418h-633l-260 -418h-76zM391 481h594v889h-37z" />
<glyph unicode="&#xc7;" horiz-adv-x="1501" d="M150 713v4q0 199 90.5 368.5t254 271t363.5 101.5q97 0 178 -16.5t147.5 -49.5t117 -70t108.5 -91l-49 -51q-50 48 -97 83t-108.5 67t-136.5 48.5t-162 16.5q-179 0 -325 -91.5t-228 -246t-82 -338.5v-4q0 -183 83 -338.5t230 -246.5t324 -91q157 0 280 60.5t230 168.5 l49 -47q-231 -238 -545 -246l-141 -270l-72 35l156 237q-190 11 -342.5 111.5t-237.5 264.5t-85 360z" />
<glyph unicode="&#xc8;" horiz-adv-x="1361" d="M213 0v1434h1010v-64h-940v-616h850v-64h-850v-627h950v-63h-1020zM481 1747l76 39l199 -219h-60z" />
<glyph unicode="&#xc9;" horiz-adv-x="1361" d="M213 0v1434h1010v-64h-940v-616h850v-64h-850v-627h950v-63h-1020zM688 1567l199 219l76 -39l-215 -180h-60z" />
<glyph unicode="&#xca;" horiz-adv-x="1361" d="M213 0v1434h1010v-64h-940v-616h850v-64h-850v-627h950v-63h-1020zM477 1567l213 207h62l213 -207h-70l-174 141l-176 -141h-68z" />
<glyph unicode="&#xcb;" horiz-adv-x="1361" d="M213 0v1434h1010v-64h-940v-616h850v-64h-850v-627h950v-63h-1020zM512 1589v125h106v-125h-106zM827 1589v125h107v-125h-107z" />
<glyph unicode="&#xcc;" horiz-adv-x="524" d="M25 1747l75 39l199 -219h-59zM227 0v1434h70v-1434h-70z" />
<glyph unicode="&#xcd;" horiz-adv-x="524" d="M227 0v1434h70v-1434h-70zM231 1567l199 219l76 -39l-215 -180h-60z" />
<glyph unicode="&#xce;" horiz-adv-x="524" d="M20 1567l213 207h62l213 -207h-70l-174 141l-176 -141h-68zM227 0v1434h70v-1434h-70z" />
<glyph unicode="&#xcf;" horiz-adv-x="524" d="M55 1589v125h107v-125h-107zM227 0v1434h70v-1434h-70zM371 1589v125h106v-125h-106z" />
<glyph unicode="&#xd0;" horiz-adv-x="1652" d="M121 688v66h153v680h467q166 0 309 -55.5t242 -151.5t155 -227.5t56 -280.5v-4q0 -149 -56 -280.5t-155 -227.5t-242 -151.5t-309 -55.5h-467v688h-153zM344 63h399q201 0 359.5 87t244 235t85.5 328v4q0 135 -50.5 254.5t-139.5 207.5t-219 139.5t-282 51.5h-397v-616 h500v-66h-500v-625z" />
<glyph unicode="&#xd1;" horiz-adv-x="1605" d="M213 0v1434h63l1049 -1315v1315h68v-1434h-56l-1056 1325v-1325h-68zM528 1571q43 162 156 162q6 0 13 -1t13 -2t14 -3.5t13.5 -4t15 -5.5t14 -6t15.5 -7t14.5 -7t16.5 -8t16 -8q80 -43 119 -43q37 0 62.5 24.5t48.5 84.5l45 -12q-43 -162 -156 -162q-47 0 -143 51 q-88 43 -119 43q-38 0 -63 -24t-48 -84z" />
<glyph unicode="&#xd2;" horiz-adv-x="1730" d="M150 715v4q0 146 51.5 280t143 236t227.5 162.5t294 60.5t294 -60.5t227 -162.5t142.5 -236t51.5 -280v-4q0 -146 -51.5 -280.5t-143.5 -236.5t-228 -162.5t-294 -60.5q-127 0 -240.5 39t-199 109t-148 162.5t-94.5 202.5t-32 227zM221 717q0 -134 48 -257.5 t131.5 -216.5t205.5 -148.5t262 -55.5q139 0 260 54.5t204 146.5t130 215t47 258v4q0 134 -47.5 257.5t-130.5 216.5t-205 148.5t-262 55.5t-261.5 -54.5t-204.5 -146.5t-130 -215t-47 -258v-4zM625 1761l75 39l199 -219h-59z" />
<glyph unicode="&#xd3;" horiz-adv-x="1730" d="M150 715v4q0 146 51.5 280t143 236t227.5 162.5t294 60.5t294 -60.5t227 -162.5t142.5 -236t51.5 -280v-4q0 -146 -51.5 -280.5t-143.5 -236.5t-228 -162.5t-294 -60.5q-127 0 -240.5 39t-199 109t-148 162.5t-94.5 202.5t-32 227zM221 717q0 -134 48 -257.5 t131.5 -216.5t205.5 -148.5t262 -55.5q139 0 260 54.5t204 146.5t130 215t47 258v4q0 134 -47.5 257.5t-130.5 216.5t-205 148.5t-262 55.5t-261.5 -54.5t-204.5 -146.5t-130 -215t-47 -258v-4zM831 1581l199 219l76 -39l-215 -180h-60z" />
<glyph unicode="&#xd4;" horiz-adv-x="1730" d="M150 715v4q0 146 51.5 280t143 236t227.5 162.5t294 60.5t294 -60.5t227 -162.5t142.5 -236t51.5 -280v-4q0 -146 -51.5 -280.5t-143.5 -236.5t-228 -162.5t-294 -60.5q-127 0 -240.5 39t-199 109t-148 162.5t-94.5 202.5t-32 227zM221 717q0 -134 48 -257.5 t131.5 -216.5t205.5 -148.5t262 -55.5q139 0 260 54.5t204 146.5t130 215t47 258v4q0 134 -47.5 257.5t-130.5 216.5t-205 148.5t-262 55.5t-261.5 -54.5t-204.5 -146.5t-130 -215t-47 -258v-4zM621 1581l213 207h61l213 -207h-70l-174 141l-176 -141h-67z" />
<glyph unicode="&#xd5;" horiz-adv-x="1730" d="M150 715v4q0 146 51.5 280t143 236t227.5 162.5t294 60.5t294 -60.5t227 -162.5t142.5 -236t51.5 -280v-4q0 -146 -51.5 -280.5t-143.5 -236.5t-228 -162.5t-294 -60.5q-127 0 -240.5 39t-199 109t-148 162.5t-94.5 202.5t-32 227zM221 717q0 -134 48 -257.5 t131.5 -216.5t205.5 -148.5t262 -55.5q139 0 260 54.5t204 146.5t130 215t47 258v4q0 134 -47.5 257.5t-130.5 216.5t-205 148.5t-262 55.5t-261.5 -54.5t-204.5 -146.5t-130 -215t-47 -258v-4zM582 1593q23 85 61 123.5t94 38.5q42 0 146 -51q80 -43 118 -43t63 24t48 84 l45 -12q-43 -162 -156 -162q-45 0 -143 52q-88 43 -119 43q-37 0 -62 -24t-48 -85z" />
<glyph unicode="&#xd6;" horiz-adv-x="1730" d="M150 715v4q0 146 51.5 280t143 236t227.5 162.5t294 60.5t294 -60.5t227 -162.5t142.5 -236t51.5 -280v-4q0 -146 -51.5 -280.5t-143.5 -236.5t-228 -162.5t-294 -60.5q-127 0 -240.5 39t-199 109t-148 162.5t-94.5 202.5t-32 227zM221 717q0 -134 48 -257.5 t131.5 -216.5t205.5 -148.5t262 -55.5q139 0 260 54.5t204 146.5t130 215t47 258v4q0 134 -47.5 257.5t-130.5 216.5t-205 148.5t-262 55.5t-261.5 -54.5t-204.5 -146.5t-130 -215t-47 -258v-4zM655 1604v125h107v-125h-107zM971 1604v125h106v-125h-106z" />
<glyph unicode="&#xd7;" horiz-adv-x="1245" d="M193 334l387 385l-387 385l47 47l385 -387l385 387l43 -43l-387 -385l387 -385l-47 -47l-385 387l-385 -387z" />
<glyph unicode="&#xd8;" horiz-adv-x="1730" d="M147 -10l195 209q-192 217 -192 516v4q0 146 51.5 280t143 236t227.5 162.5t294 60.5q285 0 480 -182l155 168h82l-197 -211q195 -214 195 -514v-4q0 -146 -51.5 -280.5t-143.5 -236.5t-228 -162.5t-294 -60.5q-282 0 -479 181l-156 -166h-82zM219 719q0 -279 170 -471 l911 979q-185 170 -436 170q-188 0 -336.5 -92.5t-228.5 -246.5t-80 -337v-2zM428 207q184 -170 440 -170q140 0 261.5 54t204.5 146t130 215.5t47 260.5v2q0 135 -44 257t-126 214z" />
<glyph unicode="&#xd9;" horiz-adv-x="1546" d="M190 618v816h70v-811q0 -281 138.5 -431.5t377.5 -150.5t374.5 147t135.5 430v816h70v-809q0 -313 -157.5 -480.5t-424.5 -167.5q-130 0 -236.5 41t-184.5 120t-120.5 201.5t-42.5 278.5zM532 1739l76 39l199 -219h-59z" />
<glyph unicode="&#xda;" horiz-adv-x="1546" d="M190 618v816h70v-811q0 -281 138.5 -431.5t377.5 -150.5t374.5 147t135.5 430v816h70v-809q0 -313 -157.5 -480.5t-424.5 -167.5q-130 0 -236.5 41t-184.5 120t-120.5 201.5t-42.5 278.5zM739 1559l199 219l76 -39l-215 -180h-60z" />
<glyph unicode="&#xdb;" horiz-adv-x="1546" d="M190 618v816h70v-811q0 -281 138.5 -431.5t377.5 -150.5t374.5 147t135.5 430v816h70v-809q0 -313 -157.5 -480.5t-424.5 -167.5q-130 0 -236.5 41t-184.5 120t-120.5 201.5t-42.5 278.5zM528 1559l213 206h62l213 -206h-70l-174 141l-176 -141h-68z" />
<glyph unicode="&#xdc;" horiz-adv-x="1546" d="M190 618v816h70v-811q0 -281 138.5 -431.5t377.5 -150.5t374.5 147t135.5 430v816h70v-809q0 -313 -157.5 -480.5t-424.5 -167.5q-130 0 -236.5 41t-184.5 120t-120.5 201.5t-42.5 278.5zM563 1581v125h107v-125h-107zM879 1581v125h106v-125h-106z" />
<glyph unicode="&#xdd;" horiz-adv-x="1394" d="M53 1434h86l561 -785l557 785h84l-608 -846v-588h-69v588zM662 1559l198 219l76 -39l-215 -180h-59z" />
<glyph unicode="&#xde;" horiz-adv-x="1370" d="M213 0v1434h70v-271h440q253 0 399 -115t146 -317v-4q0 -141 -72 -243t-197.5 -152.5t-289.5 -50.5h-426v-281h-70zM283 344h428q223 0 355 101t132 278v4q0 178 -128 275.5t-353 97.5h-434v-756z" />
<glyph unicode="&#xdf;" horiz-adv-x="1210" d="M190 0v1032q0 215 110.5 345t307.5 130q169 0 279 -102.5t110 -249.5v-4q0 -140 -90.5 -238t-240.5 -151q122 -17 214.5 -61.5t149.5 -123.5t57 -182v-4q0 -182 -146 -289.5t-382 -107.5v61q208 5 333.5 91.5t125.5 242.5v4q0 144 -121.5 227t-337.5 101v57 q165 44 266 137t101 232v4q0 122 -91.5 208.5t-228.5 86.5q-164 0 -257 -114t-93 -302v-1030h-66z" />
<glyph unicode="&#xe0;" d="M104 291v4q0 157 127 244.5t330 87.5q193 0 369 -58v70q0 174 -96 261t-273 87q-161 0 -336 -86l-24 57q190 91 364 91q215 0 328 -113q102 -105 102 -293v-643h-65v215q-46 -97 -158.5 -168.5t-275.5 -71.5q-76 0 -145.5 20.5t-125 58.5t-88.5 99.5t-33 137.5zM174 295 q0 -122 94.5 -190t231.5 -68q185 0 308.5 101t123.5 243v127q-173 57 -373 57q-174 0 -279.5 -70t-105.5 -196v-4zM358 1427l80 39l178 -247h-51z" />
<glyph unicode="&#xe1;" d="M104 291v4q0 157 127 244.5t330 87.5q193 0 369 -58v70q0 174 -96 261t-273 87q-161 0 -336 -86l-24 57q190 91 364 91q215 0 328 -113q102 -105 102 -293v-643h-65v215q-46 -97 -158.5 -168.5t-275.5 -71.5q-76 0 -145.5 20.5t-125 58.5t-88.5 99.5t-33 137.5zM174 295 q0 -122 94.5 -190t231.5 -68q185 0 308.5 101t123.5 243v127q-173 57 -373 57q-174 0 -279.5 -70t-105.5 -196v-4zM553 1219l178 247l80 -39l-207 -208h-51z" />
<glyph unicode="&#xe2;" d="M104 291v4q0 157 127 244.5t330 87.5q193 0 369 -58v70q0 174 -96 261t-273 87q-161 0 -336 -86l-24 57q190 91 364 91q215 0 328 -113q102 -105 102 -293v-643h-65v215q-46 -97 -158.5 -168.5t-275.5 -71.5q-76 0 -145.5 20.5t-125 58.5t-88.5 99.5t-33 137.5zM174 295 q0 -122 94.5 -190t231.5 -68q185 0 308.5 101t123.5 243v127q-173 57 -373 57q-174 0 -279.5 -70t-105.5 -196v-4zM348 1219l211 237h49l211 -237h-59l-176 161l-176 -161h-60z" />
<glyph unicode="&#xe3;" d="M104 291v4q0 157 127 244.5t330 87.5q193 0 369 -58v70q0 174 -96 261t-273 87q-161 0 -336 -86l-24 57q190 91 364 91q215 0 328 -113q102 -105 102 -293v-643h-65v215q-46 -97 -158.5 -168.5t-275.5 -71.5q-76 0 -145.5 20.5t-125 58.5t-88.5 99.5t-33 137.5zM174 295 q0 -122 94.5 -190t231.5 -68q185 0 308.5 101t123.5 243v127q-173 57 -373 57q-174 0 -279.5 -70t-105.5 -196v-4zM301 1229q22 94 61.5 135t96.5 41q6 0 12.5 -1t12.5 -2t14 -4t13.5 -4.5t14.5 -6t14 -6.5t15.5 -7.5t14 -7.5t15.5 -8t15 -8q7 -4 27 -14.5t28 -15t23 -11 t25.5 -9t19.5 -2.5q38 0 63 26.5t48 92.5l45 -10q-22 -94 -61.5 -134t-96.5 -40q-41 0 -141 53q-89 51 -123 51q-38 0 -63 -25.5t-48 -92.5z" />
<glyph unicode="&#xe4;" d="M104 291v4q0 157 127 244.5t330 87.5q193 0 369 -58v70q0 174 -96 261t-273 87q-161 0 -336 -86l-24 57q190 91 364 91q215 0 328 -113q102 -105 102 -293v-643h-65v215q-46 -97 -158.5 -168.5t-275.5 -71.5q-76 0 -145.5 20.5t-125 58.5t-88.5 99.5t-33 137.5zM174 295 q0 -122 94.5 -190t231.5 -68q185 0 308.5 101t123.5 243v127q-173 57 -373 57q-174 0 -279.5 -70t-105.5 -196v-4zM387 1241v127h100v-127h-100zM680 1241v127h100v-127h-100z" />
<glyph unicode="&#xe5;" d="M104 291v4q0 157 127 244.5t330 87.5q193 0 369 -58v70q0 174 -96 261t-273 87q-161 0 -336 -86l-24 57q190 91 364 91q215 0 328 -113q102 -105 102 -293v-643h-65v215q-46 -97 -158.5 -168.5t-275.5 -71.5q-76 0 -145.5 20.5t-125 58.5t-88.5 99.5t-33 137.5zM174 295 q0 -122 94.5 -190t231.5 -68q185 0 308.5 101t123.5 243v127q-173 57 -373 57q-174 0 -279.5 -70t-105.5 -196v-4zM379 1411q0 82 60 139.5t145 57.5t144.5 -57.5t59.5 -139.5q0 -80 -60 -137t-144 -57q-85 0 -145 57t-60 137zM430 1411q0 -63 44 -107t110 -44t109.5 44 t43.5 107q0 64 -44 109t-109 45t-109.5 -45t-44.5 -109z" />
<glyph unicode="&#xe6;" horiz-adv-x="1986" d="M104 291v4q0 156 127 244t326 88q186 0 356 -56l7 72q-1 170 -96.5 257t-268.5 87q-155 0 -330 -86l-24 57q190 91 358 91q169 0 273 -72t133 -217q58 137 173 217t265 80q113 0 205 -46t150 -122.5t89 -173t31 -201.5q0 -16 -2 -22h-895q5 -135 67 -240.5t160 -160 t213 -54.5q233 0 375 180l47 -41q-157 -201 -424 -201q-136 0 -250.5 65t-181.5 181q-76 -102 -200.5 -174t-280.5 -72q-109 0 -198.5 34.5t-146.5 107.5t-57 174zM174 295q0 -123 94 -190.5t242 -67.5q141 0 262 70t186 174q-44 99 -47 229q-163 55 -356 55 q-172 0 -276.5 -70t-104.5 -196v-4zM981 551h825q-4 85 -32 163.5t-77.5 142t-126 101t-169.5 37.5q-174 0 -293 -126.5t-127 -317.5z" />
<glyph unicode="&#xe7;" horiz-adv-x="1157" d="M119 514v4q0 144 69 267.5t191 197.5t268 74q132 0 230 -51t182 -140l-47 -47q-165 176 -367 176q-193 0 -325 -139t-132 -336v-4q0 -197 135 -338t326 -141q205 0 371 184l47 -41q-165 -197 -401 -205l-142 -270l-71 35l155 237q-207 12 -348 169t-141 368z" />
<glyph unicode="&#xe8;" horiz-adv-x="1193" d="M119 516v4q0 150 63.5 273t176.5 193.5t253 70.5q113 0 204.5 -45.5t149 -122.5t88.5 -173.5t31 -201.5v-22h-895q5 -136 68 -241.5t161.5 -159.5t213.5 -54t210 52t161 138l49 -39q-166 -213 -422 -213q-104 0 -197.5 38.5t-163 107.5t-110.5 171.5t-41 223.5zM190 551 h824q-4 85 -32 163.5t-77.5 142t-126.5 101t-170 37.5q-176 0 -293 -126t-125 -318zM383 1427l80 39l178 -247h-51z" />
<glyph unicode="&#xe9;" horiz-adv-x="1193" d="M119 516v4q0 150 63.5 273t176.5 193.5t253 70.5q113 0 204.5 -45.5t149 -122.5t88.5 -173.5t31 -201.5v-22h-895q5 -136 68 -241.5t161.5 -159.5t213.5 -54t210 52t161 138l49 -39q-166 -213 -422 -213q-104 0 -197.5 38.5t-163 107.5t-110.5 171.5t-41 223.5zM190 551 h824q-4 85 -32 163.5t-77.5 142t-126.5 101t-170 37.5q-176 0 -293 -126t-125 -318zM578 1219l178 247l80 -39l-207 -208h-51z" />
<glyph unicode="&#xea;" horiz-adv-x="1193" d="M119 516v4q0 150 63.5 273t176.5 193.5t253 70.5q113 0 204.5 -45.5t149 -122.5t88.5 -173.5t31 -201.5v-22h-895q5 -136 68 -241.5t161.5 -159.5t213.5 -54t210 52t161 138l49 -39q-166 -213 -422 -213q-104 0 -197.5 38.5t-163 107.5t-110.5 171.5t-41 223.5zM190 551 h824q-4 85 -32 163.5t-77.5 142t-126.5 101t-170 37.5q-176 0 -293 -126t-125 -318zM375 1219l211 237h49l211 -237h-60l-176 161l-176 -161h-59z" />
<glyph unicode="&#xeb;" horiz-adv-x="1193" d="M119 516v4q0 150 63.5 273t176.5 193.5t253 70.5q113 0 204.5 -45.5t149 -122.5t88.5 -173.5t31 -201.5v-22h-895q5 -136 68 -241.5t161.5 -159.5t213.5 -54t210 52t161 138l49 -39q-166 -213 -422 -213q-104 0 -197.5 38.5t-163 107.5t-110.5 171.5t-41 223.5zM190 551 h824q-4 85 -32 163.5t-77.5 142t-126.5 101t-170 37.5q-176 0 -293 -126t-125 -318zM414 1241v127h100v-127h-100zM707 1241v127h100v-127h-100z" />
<glyph unicode="&#xec;" horiz-adv-x="473" d="M12 1427l80 39l178 -247h-51zM203 0v1032h67v-1032h-67z" />
<glyph unicode="&#xed;" horiz-adv-x="473" d="M203 0v1032h67v-1032h-67zM207 1219l178 247l80 -39l-207 -208h-51z" />
<glyph unicode="&#xee;" horiz-adv-x="473" d="M2 1219l211 237h49l211 -237h-59l-176 161l-177 -161h-59zM203 0v1032h67v-1032h-67z" />
<glyph unicode="&#xef;" horiz-adv-x="473" d="M41 1241v127h100v-127h-100zM203 0v1032h67v-1032h-67zM334 1241v127h100v-127h-100z" />
<glyph unicode="&#xf0;" horiz-adv-x="1298" d="M117 514v4q0 148 70.5 270t190 190.5t259.5 68.5q244 0 412 -187q-99 220 -353 445l-223 -129l-33 49l209 121q-110 89 -198 149h106q17 -13 48 -36t55.5 -42t46.5 -37l206 121l33 -51l-192 -113q194 -171 310 -370.5t116 -405.5v-4q0 -253 -150.5 -417.5t-382.5 -164.5 q-111 0 -209.5 41.5t-168.5 113t-111 171.5t-41 213zM188 512q0 -201 133.5 -338t329.5 -137q195 0 326 142t131 347v4q0 196 -132.5 325.5t-334.5 129.5q-128 0 -232.5 -63t-162.5 -170t-58 -236v-4z" />
<glyph unicode="&#xf1;" horiz-adv-x="1249" d="M190 0v1032h66v-246q20 49 52 94t79.5 86.5t116.5 66t149 24.5q199 0 312.5 -124.5t113.5 -328.5v-604h-65v594q0 184 -96 292.5t-273 108.5q-164 0 -276.5 -118.5t-112.5 -294.5v-582h-66zM350 1229q22 94 61.5 135t96.5 41q6 0 12.5 -1t12.5 -2t14 -4t13.5 -4.5 t14.5 -6t14 -6.5t15.5 -7.5t14 -7.5t15.5 -8t15 -8q7 -4 27 -14.5t28 -15t23 -11t25.5 -9t19.5 -2.5q38 0 63 26.5t48 92.5l45 -10q-22 -94 -61.5 -134t-96.5 -40q-41 0 -141 53q-89 51 -123 51q-38 0 -63 -25.5t-48 -92.5z" />
<glyph unicode="&#xf2;" horiz-adv-x="1302" d="M117 512v4q0 145 66.5 268t190.5 198t279 75q153 0 276.5 -74t190 -196.5t66.5 -266.5v-4q0 -144 -66.5 -267.5t-190.5 -198.5t-278 -75t-277.5 74t-190 196.5t-66.5 266.5zM188 514q0 -129 59.5 -238t167 -174t238.5 -65q133 0 239.5 65t165 174t58.5 238v4 q0 129 -59.5 238t-167.5 174t-240 65q-200 0 -330.5 -139t-130.5 -338v-4zM424 1427l80 39l178 -247h-51z" />
<glyph unicode="&#xf3;" horiz-adv-x="1302" d="M117 512v4q0 145 66.5 268t190.5 198t279 75q153 0 276.5 -74t190 -196.5t66.5 -266.5v-4q0 -144 -66.5 -267.5t-190.5 -198.5t-278 -75t-277.5 74t-190 196.5t-66.5 266.5zM188 514q0 -129 59.5 -238t167 -174t238.5 -65q133 0 239.5 65t165 174t58.5 238v4 q0 129 -59.5 238t-167.5 174t-240 65q-200 0 -330.5 -139t-130.5 -338v-4zM618 1219l179 247l80 -39l-207 -208h-52z" />
<glyph unicode="&#xf4;" horiz-adv-x="1302" d="M117 512v4q0 145 66.5 268t190.5 198t279 75q153 0 276.5 -74t190 -196.5t66.5 -266.5v-4q0 -144 -66.5 -267.5t-190.5 -198.5t-278 -75t-277.5 74t-190 196.5t-66.5 266.5zM188 514q0 -129 59.5 -238t167 -174t238.5 -65q133 0 239.5 65t165 174t58.5 238v4 q0 129 -59.5 238t-167.5 174t-240 65q-200 0 -330.5 -139t-130.5 -338v-4zM416 1219l211 237h49l211 -237h-60l-176 161l-176 -161h-59z" />
<glyph unicode="&#xf5;" horiz-adv-x="1302" d="M117 512v4q0 145 66.5 268t190.5 198t279 75q153 0 276.5 -74t190 -196.5t66.5 -266.5v-4q0 -144 -66.5 -267.5t-190.5 -198.5t-278 -75t-277.5 74t-190 196.5t-66.5 266.5zM188 514q0 -129 59.5 -238t167 -174t238.5 -65q133 0 239.5 65t165 174t58.5 238v4 q0 129 -59.5 238t-167.5 174t-240 65q-200 0 -330.5 -139t-130.5 -338v-4zM367 1229q22 94 61 135t96 41q19 0 46.5 -10t42 -17t53.5 -28q8 -4 26.5 -14.5t28 -15t23 -11t24.5 -9t20 -2.5q38 0 63 26.5t48 92.5l45 -10q-22 -94 -61.5 -134t-96.5 -40q-41 0 -141 53 q-89 51 -123 51q-38 0 -62.5 -25.5t-47.5 -92.5z" />
<glyph unicode="&#xf6;" horiz-adv-x="1302" d="M117 512v4q0 145 66.5 268t190.5 198t279 75q153 0 276.5 -74t190 -196.5t66.5 -266.5v-4q0 -144 -66.5 -267.5t-190.5 -198.5t-278 -75t-277.5 74t-190 196.5t-66.5 266.5zM188 514q0 -129 59.5 -238t167 -174t238.5 -65q133 0 239.5 65t165 174t58.5 238v4 q0 129 -59.5 238t-167.5 174t-240 65q-200 0 -330.5 -139t-130.5 -338v-4zM455 1241v127h100v-127h-100zM748 1241v127h100v-127h-100z" />
<glyph unicode="&#xf7;" horiz-adv-x="1245" d="M143 690v62h959v-62h-959zM567 236v137h111v-137h-111zM567 1069v137h111v-137h-111z" />
<glyph unicode="&#xf8;" horiz-adv-x="1302" d="M111 -10l147 153q-141 154 -141 369v4q0 145 66.5 268t190.5 198t279 75q202 0 353 -131l110 118h78l-150 -155q67 -75 104.5 -170.5t37.5 -198.5v-4q0 -144 -66.5 -267.5t-190.5 -198.5t-278 -75q-206 0 -354 129l-109 -114h-77zM186 516q0 -193 117 -326l658 689 q-129 116 -312 116q-133 0 -239.5 -65t-165 -174t-58.5 -238v-2zM342 152q128 -115 311 -115q133 0 239.5 65t165 174t58.5 238v2q0 191 -117 324z" />
<glyph unicode="&#xf9;" horiz-adv-x="1249" d="M170 428v604h66v-594q0 -184 96 -292.5t272 -108.5q164 0 276.5 119t112.5 295v581h66v-1032h-66v246q-20 -50 -52.5 -95t-80.5 -86t-116.5 -65.5t-147.5 -24.5q-199 0 -312.5 124.5t-113.5 328.5zM387 1423l80 39l178 -248h-51z" />
<glyph unicode="&#xfa;" horiz-adv-x="1249" d="M170 428v604h66v-594q0 -184 96 -292.5t272 -108.5q164 0 276.5 119t112.5 295v581h66v-1032h-66v246q-20 -50 -52.5 -95t-80.5 -86t-116.5 -65.5t-147.5 -24.5q-199 0 -312.5 124.5t-113.5 328.5zM582 1214l178 248l80 -39l-207 -209h-51z" />
<glyph unicode="&#xfb;" horiz-adv-x="1249" d="M170 428v604h66v-594q0 -184 96 -292.5t272 -108.5q164 0 276.5 119t112.5 295v581h66v-1032h-66v246q-20 -50 -52.5 -95t-80.5 -86t-116.5 -65.5t-147.5 -24.5q-199 0 -312.5 124.5t-113.5 328.5zM377 1214l211 238h49l211 -238h-60l-176 162l-176 -162h-59z" />
<glyph unicode="&#xfc;" horiz-adv-x="1249" d="M170 428v604h66v-594q0 -184 96 -292.5t272 -108.5q164 0 276.5 119t112.5 295v581h66v-1032h-66v246q-20 -50 -52.5 -95t-80.5 -86t-116.5 -65.5t-147.5 -24.5q-199 0 -312.5 124.5t-113.5 328.5zM416 1237v127h100v-127h-100zM709 1237v127h100v-127h-100z" />
<glyph unicode="&#xfd;" horiz-adv-x="1181" d="M84 1032h74l454 -960l416 960h70l-465 -1059q-79 -178 -153 -242.5t-183 -64.5t-199 51l27 56q82 -45 174 -45q89 0 149 57t132 217zM563 1214l178 248l80 -39l-207 -209h-51z" />
<glyph unicode="&#xfe;" horiz-adv-x="1345" d="M190 -328v1823h66v-747q57 137 176.5 223t280.5 86q104 0 197.5 -40.5t162.5 -110.5t109.5 -171t40.5 -217v-4q0 -115 -40.5 -216t-109.5 -171.5t-162.5 -111t-197.5 -40.5q-163 0 -281 85.5t-176 220.5v-609h-66zM252 514q0 -199 133 -337t322 -138q196 0 321 133 t125 340v4q0 204 -127 340.5t-319 136.5q-126 0 -230.5 -63t-164.5 -172t-60 -240v-4z" />
<glyph unicode="&#xff;" horiz-adv-x="1181" d="M84 1032h74l454 -960l416 960h70l-465 -1059q-79 -178 -153 -242.5t-183 -64.5t-199 51l27 56q82 -45 174 -45q89 0 149 57t132 217zM397 1237v127h101v-127h-101zM690 1237v127h101v-127h-101z" />
<glyph unicode="&#x152;" horiz-adv-x="2375" d="M150 715v4q0 149 56 280.5t155 227.5t241.5 151.5t308.5 55.5h1325v-64h-909v-616h819v-64h-819v-627h920v-63h-1336q-166 0 -308.5 55.5t-241.5 151.5t-155 227.5t-56 280.5zM221 717q0 -135 50 -255t139.5 -208t219.5 -139.5t283 -51.5h344v1307h-348 q-151 0 -280.5 -50.5t-218.5 -138t-139 -206.5t-50 -254v-4z" />
<glyph unicode="&#x153;" horiz-adv-x="2187" d="M117 512v4q0 145 66.5 268t190 198t277.5 75q179 0 312.5 -99.5t183.5 -261.5q44 165 169 263t290 98q113 0 204.5 -45.5t149 -122.5t88.5 -173.5t31 -201.5v-22h-897q5 -135 67.5 -240.5t161 -160t213.5 -54.5q233 0 375 180l47 -41q-161 -201 -424 -201 q-167 0 -296.5 97t-178.5 268q-51 -163 -184 -264t-314 -101q-152 0 -275 74t-190 196.5t-67 266.5zM188 514q0 -129 59.5 -238t167 -174t238.5 -65q133 0 239.5 65t165 174t58.5 238v4q0 129 -59.5 238t-167.5 174t-240 65q-200 0 -330.5 -139t-130.5 -338v-4zM1182 551 h825q-4 85 -32 163.5t-77 142t-126 101t-170 37.5q-176 0 -292 -125.5t-128 -318.5z" />
<glyph unicode="&#x178;" horiz-adv-x="1394" d="M53 1434h86l561 -785l557 785h84l-608 -846v-588h-69v588zM485 1581v125h107v-125h-107zM801 1581v125h106v-125h-106z" />
<glyph unicode="&#x2c6;" horiz-adv-x="1024" d="M276 1219l211 237h50l211 -237h-60l-176 161l-176 -161h-60z" />
<glyph unicode="&#x2dc;" horiz-adv-x="1024" d="M223 1229q22 94 61.5 135t96.5 41q6 0 12.5 -1t12.5 -2t14 -4t13.5 -4.5t14.5 -6t14 -6.5t15.5 -7.5t14 -7.5t15.5 -8t15 -8q7 -4 27 -14.5t28 -15t23 -11t25.5 -9t19.5 -2.5q38 0 63 26.5t48 92.5l45 -10q-22 -94 -61.5 -134t-96.5 -40q-41 0 -141 53q-89 51 -123 51 q-38 0 -63 -25.5t-48 -92.5z" />
<glyph unicode="&#x2000;" horiz-adv-x="900" />
<glyph unicode="&#x2001;" horiz-adv-x="1800" />
<glyph unicode="&#x2002;" horiz-adv-x="900" />
<glyph unicode="&#x2003;" horiz-adv-x="1800" />
<glyph unicode="&#x2004;" horiz-adv-x="600" />
<glyph unicode="&#x2005;" horiz-adv-x="450" />
<glyph unicode="&#x2006;" horiz-adv-x="300" />
<glyph unicode="&#x2007;" horiz-adv-x="300" />
<glyph unicode="&#x2008;" horiz-adv-x="225" />
<glyph unicode="&#x2009;" horiz-adv-x="360" />
<glyph unicode="&#x200a;" horiz-adv-x="100" />
<glyph unicode="&#x2010;" horiz-adv-x="811" d="M143 573v72h525v-72h-525z" />
<glyph unicode="&#x2011;" horiz-adv-x="811" d="M143 573v72h525v-72h-525z" />
<glyph unicode="&#x2012;" horiz-adv-x="811" d="M143 573v72h525v-72h-525z" />
<glyph unicode="&#x2013;" horiz-adv-x="1093" d="M143 575v66h807v-66h-807z" />
<glyph unicode="&#x2014;" horiz-adv-x="1835" d="M143 575v66h1549v-66h-1549z" />
<glyph unicode="&#x2018;" horiz-adv-x="389" d="M141 1120v117q0 90 26 135t89 70l18 -37q-47 -23 -64.5 -58.5t-12.5 -93.5h43v-133h-99z" />
<glyph unicode="&#x2019;" horiz-adv-x="389" d="M117 1149q47 23 65 58t13 93h-45v134h98v-117q0 -90 -25.5 -135t-87.5 -70z" />
<glyph unicode="&#x201a;" horiz-adv-x="389" d="M113 -152q47 23 64.5 58.5t12.5 93.5h-45v133h99v-117q0 -90 -25.5 -134t-87.5 -68z" />
<glyph unicode="&#x201c;" horiz-adv-x="647" d="M141 1120v117q0 90 26 135t89 70l18 -37q-47 -23 -64.5 -58.5t-12.5 -93.5h43v-133h-99zM399 1120v117q0 90 26 135t89 70l18 -37q-47 -23 -64.5 -58.5t-12.5 -93.5h43v-133h-99z" />
<glyph unicode="&#x201d;" horiz-adv-x="647" d="M117 1149q47 23 65 58t13 93h-45v134h98v-117q0 -90 -25.5 -135t-87.5 -70zM375 1149q47 23 65 58t13 93h-45v134h98v-117q0 -90 -25.5 -135t-87.5 -70z" />
<glyph unicode="&#x201e;" horiz-adv-x="647" d="M113 -152q47 23 64.5 58.5t12.5 93.5h-45v133h99v-117q0 -90 -25.5 -134t-87.5 -68zM371 -152q47 23 65 58.5t13 93.5h-46v133h99v-117q0 -90 -25.5 -134t-87.5 -68z" />
<glyph unicode="&#x2022;" horiz-adv-x="913" d="M225 721v4q0 92 70 159.5t164 67.5q93 0 162 -67.5t69 -159.5v-4q0 -94 -68.5 -161.5t-162.5 -67.5q-95 0 -164.5 67.5t-69.5 161.5z" />
<glyph unicode="&#x2026;" horiz-adv-x="1150" d="M145 0v131h97v-131h-97zM528 0v131h97v-131h-97zM909 0v131h97v-131h-97z" />
<glyph unicode="&#x202f;" horiz-adv-x="360" />
<glyph unicode="&#x2039;" horiz-adv-x="614" d="M96 516v12l346 424l45 -32l-313 -398l313 -397l-45 -33z" />
<glyph unicode="&#x203a;" horiz-adv-x="614" d="M125 125l313 397l-313 398l45 32l348 -424v-12l-348 -424z" />
<glyph unicode="&#x205f;" horiz-adv-x="450" />
<glyph unicode="&#x20ac;" horiz-adv-x="1474" d="M109 520v64h180q-8 55 -8 131v2q0 90 10 151h-182v66h196q50 232 200.5 378t352.5 146q170 0 285 -75t205 -214l-56 -36q-85 131 -185.5 197.5t-250.5 66.5q-174 0 -304 -128.5t-181 -334.5h616v-66h-629q-12 -74 -12 -151v-2q0 -69 6 -131h635v-64h-622 q47 -217 183.5 -350t325.5 -133q139 0 241 73.5t183 204.5l54 -32q-91 -145 -206 -226.5t-274 -81.5q-219 0 -372 148t-203 397h-188z" />
<glyph unicode="&#x2122;" horiz-adv-x="1372" d="M43 1386v48h481v-48h-217v-583h-47v583h-217zM666 803v631h47l258 -379l258 379h47v-631h-47v545l-256 -371h-6l-254 371v-545h-47z" />
<glyph unicode="&#x25fc;" horiz-adv-x="1034" d="M0 0v1034h1034v-1034h-1034z" />
</font>
</defs>
</svg>
